<?xml version="1.0" encoding="UTF-8"?>
<svg id="_レイヤー_2" data-name="レイヤー 2" xmlns="http://www.w3.org/2000/svg" viewBox="0 0 381.57 381.57">
  <defs>
    <style>
      .cls-1 {
        fill: #cacaca;
      }
    </style>
  </defs>
  <g id="check">
    <path class="cls-1" d="M321.67,381.57H59.9c-33.08,0-59.9-26.82-59.9-59.9V59.9C0,26.82,26.82,0,59.9,0h261.78c33.08,0,59.9,26.82,59.9,59.9v261.78c0,33.08-26.82,59.9-59.9,59.9ZM100.77,149.58c-8.97-8.97-23.52-8.97-32.49,0h0c-8.97,8.97-8.97,23.52,0,32.49l87.56,87.56h-.23s0,0,0,0c8.97,8.97,23.52,8.97,32.49,0l125.2-125.2c8.97-8.97,8.97-23.52,0-32.49h0c-8.97-8.97-23.52-8.97-32.49,0l-108.84,108.84-71.2-71.2Z"/>
  </g>
</svg>