<?xml version="1.0" encoding="UTF-8"?>
<svg id="_レイヤー_2" data-name="レイヤー 2" xmlns="http://www.w3.org/2000/svg" viewBox="0 0 287.76 383.25">
  <defs>
    <style>
      .cls-1 {
        fill: #cacaca;
      }
    </style>
  </defs>
  <g id="file">
    <path class="cls-1" d="M255.52,383.25H32.24c-17.81,0-32.24-14.43-32.24-32.24V32.24C0,14.43,14.43,0,32.24,0h223.28c17.81,0,32.24,14.43,32.24,32.24v318.77c0,17.81-14.43,32.24-32.24,32.24ZM245.51,41.89v-4.2c0-4.19-3.39-7.58-7.58-7.58H49.83c-4.19,0-7.58,3.39-7.58,7.58v4.2c0,4.19,3.39,7.58,7.58,7.58h188.1c4.19,0,7.58-3.39,7.58-7.58ZM230.98,99.57h0c0-3.21-2.6-5.82-5.82-5.82H62.6c-3.21,0-5.82,2.6-5.82,5.82h0c0,3.21,2.6,5.82,5.82,5.82h162.57c3.21,0,5.82-2.6,5.82-5.82ZM230.98,132.26h0c0-3.21-2.6-5.82-5.82-5.82H62.6c-3.21,0-5.82,2.6-5.82,5.82h0c0,3.21,2.6,5.82,5.82,5.82h162.57c3.21,0,5.82-2.6,5.82-5.82ZM230.98,164.95h0c0-3.21-2.6-5.82-5.82-5.82H62.6c-3.21,0-5.82,2.6-5.82,5.82h0c0,3.21,2.6,5.82,5.82,5.82h162.57c3.21,0,5.82-2.6,5.82-5.82ZM230.98,197.64h0c0-3.21-2.6-5.82-5.82-5.82H62.6c-3.21,0-5.82,2.6-5.82,5.82h0c0,3.21,2.6,5.82,5.82,5.82h162.57c3.21,0,5.82-2.6,5.82-5.82ZM230.98,230.33h0c0-3.21-2.6-5.82-5.82-5.82H62.6c-3.21,0-5.82,2.6-5.82,5.82h0c0,3.21,2.6,5.82,5.82,5.82h162.57c3.21,0,5.82-2.6,5.82-5.82ZM230.98,263.02h0c0-3.21-2.6-5.82-5.82-5.82H62.6c-3.21,0-5.82,2.6-5.82,5.82h0c0,3.21,2.6,5.82,5.82,5.82h162.57c3.21,0,5.82-2.6,5.82-5.82Z"/>
  </g>
</svg>