<?xml version="1.0" encoding="UTF-8"?>
<svg id="_レイヤー_2" data-name="レイヤー 2" xmlns="http://www.w3.org/2000/svg" viewBox="0 0 365.62 421.05">
  <defs>
    <style>
      .cls-1 {
        fill: none;
        stroke: #cacaca;
        stroke-miterlimit: 10;
        stroke-width: 50px;
      }

      .cls-2 {
        fill: #cacaca;
      }
    </style>
  </defs>
  <g id="rock">
    <path class="cls-1" d="M321.57,163.76c0-76.64-62.13-138.76-138.76-138.76-76.64,0-138.76,62.13-138.76,138.76,0,76.64,0,94.44,0,185.74"/>
    <path class="cls-2" d="M299.08,421.05H66.55c-36.75,0-66.55-29.79-66.55-66.55v-156.34c0-36.75,29.79-66.55,66.55-66.55h232.53c36.75,0,66.55,29.79,66.55,66.55v156.34c0,36.75-29.79,66.55-66.55,66.55ZM182.81,243.93c-17.89,0-32.4,14.51-32.4,32.4s14.51,32.4,32.4,32.4,32.4-14.51,32.4-32.4-14.51-32.4-32.4-32.4Z"/>
  </g>
</svg>