<?xml version="1.0" encoding="UTF-8"?>
<svg id="_レイヤー_2" data-name="レイヤー 2" xmlns="http://www.w3.org/2000/svg" viewBox="0 0 651.82 488.81">
  <defs>
    <style>
      .cls-1 {
        fill: none;
        stroke: #cacaca;
        stroke-miterlimit: 10;
        stroke-width: 50px;
      }

      .cls-2 {
        fill: #cacaca;
      }
    </style>
  </defs>
  <g id="unrock">
    <path class="cls-1" d="M25,164.39c0-76.98,62.41-139.39,139.39-139.39,76.98,0,139.39,62.41,139.39,139.39v25.05"/>
    <path class="cls-2" d="M560.28,223.06c9.12,0,16.55,7.42,16.55,16.55v157.66c0,9.12-7.42,16.55-16.55,16.55h-234.19c-9.12,0-16.55-7.42-16.55-16.55v-157.66c0-9.12,7.42-16.55,16.55-16.55h234.19M560.28,173.06h-234.19c-36.75,0-66.55,29.79-66.55,66.55v157.66c0,36.75,29.79,66.55,66.55,66.55h234.19c36.75,0,66.55-29.79,66.55-66.55v-157.66c0-36.75-29.79-66.55-66.55-66.55h0Z"/>
    <path class="cls-2" d="M443.18,285.89c-17.97,0-32.55,14.57-32.55,32.55s14.57,32.55,32.55,32.55,32.55-14.57,32.55-32.55-14.57-32.55-32.55-32.55h0Z"/>
  </g>
</svg>