<?xml version="1.0" encoding="UTF-8"?>
<svg id="_レイヤー_2" data-name="レイヤー 2" xmlns="http://www.w3.org/2000/svg" viewBox="0 0 356.7 408.48">
  <defs>
    <style>
      .cls-1 {
        fill: #cacaca;
      }

      .cls-2 {
        fill: none;
        stroke: #cacaca;
        stroke-miterlimit: 10;
        stroke-width: 5px;
      }
    </style>
  </defs>
  <g id="bezier">
    <path class="cls-1" d="M33.43,384.28c.6-2.7,1.33-5.37,2.23-7.99.43-1.26.9-2.5,1.4-3.74.54-1.35-.39.86.21-.48.34-.75.68-1.5,1.04-2.24,2.47-5.13,5.51-9.94,8.84-14.55.38-.53.77-1.04,1.17-1.56-.9,1.18.41-.52.64-.8.98-1.2,1.96-2.39,2.97-3.56,2-2.31,4.07-4.55,6.21-6.73,4.48-4.56,9.22-8.86,14.11-12.98,20.67-17.4,45.58-32.83,68.84-48.71,24.14-16.49,48.39-33.95,67.72-56.09s32.07-47.87,34.14-77.08c2.69-37.97-12.78-75.25-31.62-107.35-3.19-5.43-6.53-10.77-9.98-16.05-5.26-8.05-18.25-.54-12.95,7.57,20.8,31.84,39.71,68.82,39.84,107.15.1,26.7-10.54,51.75-27.29,71.92-18.38,22.12-40.78,38.63-64.03,54.64-23.72,16.33-48.28,31.55-70.72,49.64-18.92,15.25-36.94,33.55-45,57-.9,2.62-1.64,5.29-2.23,7.99-2.08,9.41,12.38,13.42,14.46,3.99h0Z"/>
    <circle class="cls-1" cx="192.84" cy="26.19" r="26.19"/>
    <circle class="cls-1" cx="26.19" cy="382.29" r="26.19"/>
    <rect class="cls-1" x="35.03" y="250.49" width="31.88" height="31.88"/>
    <rect class="cls-1" x="324.82" y="225.54" width="31.88" height="31.88"/>
    <line class="cls-2" x1="194.88" y1="28.16" x2="340.76" y2="241.48"/>
    <line class="cls-2" x1="26.19" y1="382.29" x2="50.97" y2="266.43"/>
  </g>
</svg>