<?xml version="1.0" encoding="UTF-8"?>
<svg id="_レイヤー_2" data-name="レイヤー 2" xmlns="http://www.w3.org/2000/svg" viewBox="0 0 547.66 417.78">
  <defs>
    <style>
      .cls-1 {
        fill: #cacaca;
      }
    </style>
  </defs>
  <g id="camera">
    <path class="cls-1" d="M469.76,78.43c15.39,0,27.9,12.52,27.9,27.9v233.54c0,15.39-12.52,27.9-27.9,27.9H77.9c-15.39,0-27.9-12.52-27.9-27.9V106.34c0-15.39,12.52-27.9,27.9-27.9h391.86M469.76,28.43H77.9C34.88,28.43,0,63.31,0,106.34v233.54c0,43.03,34.88,77.9,77.9,77.9h391.86c43.03,0,77.9-34.88,77.9-77.9V106.34c0-43.03-34.88-77.9-77.9-77.9h0Z"/>
    <path class="cls-1" d="M202.57,161.44c39.57,0,71.76,32.19,71.76,71.76s-32.19,71.76-71.76,71.76-71.76-32.19-71.76-71.76,32.19-71.76,71.76-71.76M202.57,111.44c-67.25,0-121.76,54.51-121.76,121.76s54.51,121.76,121.76,121.76,121.76-54.51,121.76-121.76-54.51-121.76-121.76-121.76h0Z"/>
    <path class="cls-1" d="M464.06,0h-73.09c-14.39,0-26.05,11.66-26.05,26.05v11.18c0,14.39,11.66,26.05,26.05,26.05h73.09c14.39,0,26.05-11.66,26.05-26.05v-11.18c0-14.39-11.66-26.05-26.05-26.05h0Z"/>
  </g>
</svg>