<?xml version="1.0" encoding="UTF-8"?>
<svg id="_レイヤー_2" data-name="レイヤー 2" xmlns="http://www.w3.org/2000/svg" viewBox="0 0 505.37 379.61">
  <defs>
    <style>
      .cls-1 {
        fill: #fff;
      }

      .cls-2 {
        fill: #cacaca;
      }
    </style>
  </defs>
  <g id="folder">
    <rect class="cls-2" y="45.44" width="477.89" height="334.17" rx="48.28" ry="48.28"/>
    <rect class="cls-2" x="45.33" width="154.65" height="64.77" rx="16.16" ry="16.16"/>
    <g>
      <path class="cls-1" d="M424.17,379.61H42.85c-26.67,0-45.69-18.18-42.5-40.6l28.39-199.13c3.18-22.28,27.28-40.33,53.85-40.33h379.85c26.56,0,45.64,18.05,42.61,40.33l-27.08,199.13c-3.05,22.42-27.14,40.6-53.8,40.6Z"/>
      <path class="cls-1" d="M215.33,115.69h-121.89c-8.89,0-15.24-6.04-14.18-13.49l3.84-27.09c1.06-7.44,9.11-13.48,18-13.48h121.8c8.88,0,15.24,6.03,14.2,13.48l-3.79,27.09c-1.04,7.45-9.09,13.49-17.98,13.49Z"/>
    </g>
  </g>
</svg>