<?xml version="1.0" encoding="UTF-8"?>
<svg id="_レイヤー_2" data-name="レイヤー 2" xmlns="http://www.w3.org/2000/svg" viewBox="0 0 689.38 471.97">
  <defs>
    <style>
      .cls-1 {
        fill: none;
        stroke: #cacaca;
        stroke-miterlimit: 10;
        stroke-width: 50px;
      }

      .cls-2 {
        fill: #cacaca;
      }
    </style>
  </defs>
  <g id="hide">
    <line class="cls-1" x1="126.38" y1="17.68" x2="563" y2="454.3"/>
    <path class="cls-2" d="M507.07,134.33c14.63,8.05,28.47,17.29,41.4,27.66,24.16,19.37,40.29,38.82,49.56,51.73,6.64,9.25,11.08,16.92,13.8,22.28-2.72,5.36-7.15,13.03-13.8,22.28-9.27,12.91-25.4,32.36-49.56,51.73-12.94,10.37-26.78,19.61-41.4,27.66,5.39-8.6,10.1-17.65,14.09-27.09,10-23.65,15.07-48.74,15.07-74.57s-5.07-50.93-15.07-74.57c-3.99-9.44-8.7-18.49-14.09-27.09M182.31,134.33c-5.39,8.6-10.1,17.65-14.09,27.09-10,23.65-15.07,48.74-15.07,74.57s5.07,50.93,15.07,74.57c3.99,9.44,8.7,18.49,14.09,27.09-14.63-8.05-28.47-17.29-41.4-27.66-24.16-19.37-40.29-38.82-49.56-51.73-6.64-9.25-11.08-16.92-13.8-22.28,2.72-5.36,7.15-13.03,13.8-22.28,9.27-12.91,25.4-32.36,49.56-51.73,12.94-10.37,26.78-19.61,41.4-27.66M344.69,45.2C116.08,45.2,25,212.43,25,235.99s91.08,190.79,319.69,190.79,319.69-167.23,319.69-190.79S573.3,45.2,344.69,45.2h0ZM344.69,377.53c-78.17,0-141.54-63.37-141.54-141.54s63.37-141.54,141.54-141.54,141.54,63.37,141.54,141.54-63.37,141.54-141.54,141.54h0Z"/>
    <path class="cls-2" d="M344.69,214.66c11.76,0,21.33,9.57,21.33,21.33s-9.57,21.33-21.33,21.33-21.33-9.57-21.33-21.33,9.57-21.33,21.33-21.33M344.69,164.66c-39.39,0-71.33,31.94-71.33,71.33s31.94,71.33,71.33,71.33,71.33-31.94,71.33-71.33-31.94-71.33-71.33-71.33h0Z"/>
  </g>
</svg>