<?xml version="1.0" encoding="UTF-8"?>
<svg id="_レイヤー_2" data-name="レイヤー 2" xmlns="http://www.w3.org/2000/svg" xmlns:xlink="http://www.w3.org/1999/xlink" viewBox="0 0 587.69 559.71">
  <defs>
    <style>
      .cls-1 {
        fill: none;
      }

      .cls-2 {
        clip-path: url(#clippath);
      }

      .cls-3 {
        fill: #cacaca;
      }
    </style>
    <clipPath id="clippath">
      <path class="cls-1" d="M528.51,279.86c0,129.6-105.06,234.67-234.67,234.67S59.18,409.46,59.18,279.86,164.24,45.19,293.85,45.19s234.67,105.06,234.67,234.67ZM293.85,146.74c-73.52,0-133.12,59.6-133.12,133.12s59.6,133.12,133.12,133.12,133.12-59.6,133.12-133.12-59.6-133.12-133.12-133.12Z"/>
    </clipPath>
  </defs>
  <g id="setting">
    <circle class="cls-3" cx="293.85" cy="279.86" r="86.86"/>
    <g class="cls-2">
      <path class="cls-3" d="M587.69,279.86c0,25.01-124.93,29.95-132.26,52.52-7.59,23.39,90.29,100.78,76.12,120.25-14.31,19.66-118.25-49.62-137.91-35.31-19.47,14.17,14.4,134.48-8.99,142.07s-65.8-109.68-90.81-109.68-68.24,117.01-90.81,109.68c-23.39-7.59,10.48-127.91-8.99-142.07s-123.6,54.98-137.91,35.31c-14.17-19.47,83.72-96.86,76.12-120.25C124.93,309.81,0,304.87,0,279.86s124.93-29.95,132.26-52.52c7.59-23.39-90.29-100.78-76.12-120.25s118.25,49.62,137.91,35.31S179.64,7.92,203.03.33c22.57-7.33,65.8,109.68,90.81,109.68S362.09-7,384.66.33s-10.48,127.91,8.99,142.07c19.66,14.31,123.6-54.98,137.91-35.31,14.17,19.47-83.72,96.86-76.12,120.25,7.33,22.57,132.26,27.51,132.26,52.52Z"/>
    </g>
  </g>
</svg>