<?xml version="1.0" encoding="UTF-8"?>
<svg id="_レイヤー_2" data-name="レイヤー 2" xmlns="http://www.w3.org/2000/svg" viewBox="0 0 381.58 381.58">
  <defs>
    <style>
      .cls-1 {
        fill: #cacaca;
      }
    </style>
  </defs>
  <g id="_レイヤー_2-2" data-name=" レイヤー 2">
    <g id="uncheck">
      <path class="cls-1" d="M321.67,50c5.46,0,9.9,4.44,9.9,9.9v261.78c0,5.46-4.44,9.9-9.9,9.9H59.9c-5.46,0-9.9-4.44-9.9-9.9V59.9c0-5.46,4.44-9.9,9.9-9.9h261.78M321.67,0H59.9C26.82,0,0,26.82,0,59.9v261.78c0,33.08,26.82,59.9,59.9,59.9h261.78c33.08,0,59.9-26.82,59.9-59.9V59.9c0-33.08-26.82-59.9-59.9-59.9h0Z"/>
    </g>
  </g>
</svg>