<?xml version="1.0" encoding="UTF-8"?>
<svg id="_レイヤー_2" data-name="レイヤー 2" xmlns="http://www.w3.org/2000/svg" viewBox="0 0 431.57 431.57">
  <defs>
    <style>
      .cls-1 {
        fill: #cacaca;
      }
    </style>
  </defs>
  <g id="uncheck">
    <path class="cls-1" d="M346.67,75c5.46,0,9.9,4.44,9.9,9.9v261.78c0,5.46-4.44,9.9-9.9,9.9H84.9c-5.46,0-9.9-4.44-9.9-9.9V84.9c0-5.46,4.44-9.9,9.9-9.9h261.78M346.67,25H84.9c-33.08,0-59.9,26.82-59.9,59.9v261.78c0,33.08,26.82,59.9,59.9,59.9h261.78c33.08,0,59.9-26.82,59.9-59.9V84.9c0-33.08-26.82-59.9-59.9-59.9h0Z"/>
  </g>
</svg>